<?xml version="1.0" standalone="no"?><!DOCTYPE svg PUBLIC "-//W3C//DTD SVG 1.1//EN" "http://www.w3.org/Graphics/SVG/1.1/DTD/svg11.dtd"><svg height="800" node-id="1" sillyvg="true" template-height="800" template-width="800" version="1.1" viewBox="0 0 800 800" width="800" xmlns="http://www.w3.org/2000/svg" xmlns:xlink="http://www.w3.org/1999/xlink"><defs node-id="84"></defs><g node-id="276"><g node-id="283"><g node-id="284"><g node-id="286"><g node-id="309"><path d="M 691.30 166.40 L 691.10 169.00 L 689.70 174.00 L 687.20 178.40 L 685.50 180.40 L 683.50 182.10 L 679.00 184.70 L 674.10 186.00 L 671.50 186.20 L 668.90 186.00 L 663.90 184.70 L 659.50 182.10 L 657.50 180.40 L 654.30 176.30 L 652.40 171.60 L 651.90 169.00 L 651.70 166.40 L 652.40 161.30 L 654.30 156.60 L 657.50 152.40 L 659.50 150.70 L 663.90 148.20 L 668.90 146.80 L 671.50 146.70 L 674.10 146.80 L 679.00 148.20 L 683.50 150.70 L 685.50 152.40 L 687.20 154.40 L 689.70 158.90 L 691.10 163.80 L 691.30 166.40 Z" fill="#e1e7e7" fill-rule="nonzero" group-id="1,8,9,11,34" node-id="95" stroke="none" target-height="39.5" target-width="39.599976" target-x="651.7" target-y="146.7"></path></g></g><g node-id="287"><g node-id="310"><path d="M 123.10 618.20 L 123.00 620.80 L 121.60 625.80 L 119.10 630.20 L 117.30 632.20 L 115.40 633.90 L 110.90 636.50 L 106.00 637.80 L 103.40 638.00 L 100.70 637.80 L 95.80 636.50 L 91.30 633.90 L 89.40 632.20 L 86.20 628.10 L 84.30 623.40 L 83.80 620.80 L 83.60 618.20 L 84.30 613.10 L 86.20 608.40 L 89.40 604.20 L 91.30 602.50 L 95.80 600.00 L 100.70 598.60 L 103.40 598.40 L 106.00 598.60 L 110.90 600.00 L 115.40 602.50 L 117.30 604.20 L 119.10 606.20 L 121.60 610.70 L 123.00 615.60 L 123.10 618.20 Z" fill="#e1e7e7" fill-rule="nonzero" group-id="1,8,9,12,35" node-id="103" stroke="none" target-height="39.599976" target-width="39.5" target-x="83.6" target-y="598.4"></path></g></g><g node-id="288"><g node-id="311"><path d="M 224.50 680.20 L 222.00 680.00 L 219.80 679.40 L 217.70 678.40 L 214.30 675.50 L 211.90 671.50 L 211.30 669.30 L 211.10 666.90 L 211.30 664.40 L 211.90 662.20 L 214.30 658.20 L 217.70 655.30 L 219.80 654.30 L 222.00 653.70 L 224.50 653.50 L 226.90 653.70 L 229.20 654.30 L 233.10 656.60 L 236.00 660.10 L 237.00 662.20 L 237.60 664.40 L 237.90 666.90 L 237.60 669.30 L 237.00 671.50 L 234.70 675.50 L 231.20 678.40 L 229.20 679.40 L 226.90 680.00 L 224.50 680.20 Z M 224.50 659.90 L 222.60 660.20 L 221.00 660.90 L 219.60 661.90 L 218.50 663.30 L 217.80 665.00 L 217.50 666.90 L 217.80 668.70 L 218.50 670.40 L 219.60 671.80 L 221.00 672.80 L 222.60 673.50 L 224.50 673.80 L 226.30 673.50 L 228.00 672.80 L 229.40 671.80 L 230.50 670.40 L 231.20 668.70 L 231.40 666.90 L 231.20 665.00 L 230.50 663.30 L 229.40 661.90 L 228.00 660.90 L 226.30 660.20 L 224.50 659.90 Z" fill="#e1e7e7" fill-rule="nonzero" group-id="1,8,9,13,36" node-id="111" stroke="none" target-height="26.700012" target-width="26.799988" target-x="211.1" target-y="653.5"></path></g></g><g node-id="289"><g node-id="312"><path d="M 602.90 107.10 L 582.90 107.10 L 582.90 87.10 L 582.70 85.30 L 582.00 83.80 L 581.00 82.40 L 579.70 81.40 L 578.10 80.70 L 576.30 80.50 L 574.50 80.70 L 573.00 81.40 L 571.60 82.40 L 570.60 83.80 L 569.90 85.30 L 569.70 87.10 L 569.70 107.10 L 549.70 107.10 L 547.90 107.30 L 546.40 108.00 L 545.00 109.00 L 544.00 110.40 L 543.30 111.90 L 543.10 113.70 L 543.30 115.50 L 544.00 117.10 L 545.00 118.40 L 546.40 119.40 L 547.90 120.10 L 549.70 120.30 L 569.70 120.30 L 569.70 140.30 L 569.90 142.10 L 570.60 143.70 L 571.60 145.00 L 573.00 146.00 L 574.50 146.70 L 576.30 146.90 L 578.10 146.70 L 579.70 146.00 L 581.00 145.00 L 582.00 143.70 L 582.70 142.10 L 582.90 140.30 L 582.90 120.30 L 602.90 120.30 L 604.70 120.10 L 606.30 119.40 L 607.60 118.40 L 608.60 117.10 L 609.30 115.50 L 609.50 113.70 L 609.30 111.90 L 608.60 110.40 L 607.60 109.00 L 606.30 108.00 L 604.70 107.30 L 602.90 107.10 Z" fill="#e1e7e7" fill-rule="nonzero" group-id="1,8,9,14,37" node-id="119" stroke="none" target-height="66.399994" target-width="66.400024" target-x="543.1" target-y="80.5"></path></g></g><g node-id="290"><g node-id="313"><path d="M 660.50 684.10 L 645.70 684.10 L 645.40 667.80 L 644.90 666.50 L 642.90 664.50 L 640.10 663.80 L 637.40 664.50 L 635.40 666.50 L 634.80 667.80 L 634.60 684.10 L 619.80 684.10 L 617.00 684.90 L 615.00 686.90 L 614.30 689.60 L 614.50 691.10 L 615.00 692.40 L 617.00 694.40 L 619.80 695.10 L 634.60 695.10 L 634.80 711.50 L 635.40 712.80 L 637.40 714.70 L 640.10 715.50 L 642.90 714.70 L 644.90 712.80 L 645.40 711.50 L 645.70 695.10 L 660.50 695.10 L 663.30 694.40 L 665.30 692.40 L 666.00 689.60 L 665.30 686.90 L 663.30 684.90 L 660.50 684.10 Z" fill="#e1e7e7" fill-rule="nonzero" group-id="1,8,9,15,38" node-id="127" stroke="none" target-height="51.700012" target-width="51.700012" target-x="614.3" target-y="663.8"></path></g></g><g node-id="291"><g node-id="314"><path d="M 125.40 122.50 L 127.80 124.60 L 132.80 127.40 L 138.40 128.90 L 144.00 128.90 L 149.60 127.40 L 154.60 124.60 L 156.90 122.50 L 160.60 117.70 L 161.80 115.20 L 163.30 109.60 L 163.30 104.00 L 162.70 101.10 L 160.60 95.80 L 159.00 93.30 L 150.30 84.40 L 147.90 82.30 L 142.90 79.40 L 137.30 78.00 L 131.70 78.00 L 126.10 79.40 L 121.10 82.30 L 118.80 84.40 L 115.10 89.10 L 113.90 91.70 L 112.40 97.30 L 112.40 102.90 L 113.00 105.80 L 115.10 111.10 L 116.70 113.50 L 125.40 122.50 Z" fill="#e1e7e7" fill-rule="nonzero" group-id="1,8,9,16,39" node-id="135" stroke="none" target-height="50.899994" target-width="50.9" target-x="112.4" target-y="78"></path></g></g><g node-id="292"><g node-id="315"><path d="M 240.20 114.50 L 243.10 116.50 L 244.80 117.10 L 248.20 117.40 L 251.60 116.50 L 254.50 114.50 L 256.60 111.50 L 257.50 108.10 L 257.20 104.70 L 256.60 103.10 L 254.50 100.10 L 244.50 90.10 L 241.60 88.00 L 238.20 87.10 L 234.80 87.40 L 231.60 88.90 L 230.10 90.10 L 229.00 91.50 L 227.50 94.70 L 227.20 98.10 L 228.10 101.50 L 230.10 104.50 L 240.20 114.50 Z" fill="#e1e7e7" fill-rule="nonzero" group-id="1,8,9,17,40" node-id="143" stroke="none" target-height="30.300003" target-width="30.300003" target-x="227.2" target-y="87.1"></path></g></g><g node-id="293"><g node-id="316"><path d="M 89.10 315.20 L 92.00 317.30 L 93.70 317.80 L 97.10 318.10 L 100.50 317.30 L 103.50 315.20 L 105.50 312.20 L 106.10 310.60 L 106.40 307.20 L 105.50 303.80 L 103.50 300.80 L 93.50 290.80 L 90.50 288.70 L 87.10 287.90 L 83.70 288.20 L 80.50 289.60 L 79.10 290.80 L 77.90 292.20 L 76.40 295.40 L 76.10 298.80 L 77.00 302.20 L 79.10 305.20 L 89.10 315.20 Z" fill="#e1e7e7" fill-rule="nonzero" group-id="1,8,9,18,41" node-id="151" stroke="none" target-height="30.200012" target-width="30.300003" target-x="76.1" target-y="287.9"></path></g></g><g node-id="294"><g node-id="317"><path d="M 617.00 622.70 L 614.10 620.60 L 612.40 620.00 L 609.00 619.70 L 605.60 620.60 L 602.70 622.70 L 600.60 625.60 L 599.70 629.00 L 600.00 632.40 L 600.60 634.10 L 602.70 637.00 L 612.70 647.10 L 615.60 649.10 L 619.00 650.00 L 622.40 649.70 L 625.60 648.20 L 627.10 647.10 L 628.20 645.60 L 629.70 642.40 L 630.00 639.00 L 629.10 635.60 L 627.10 632.70 L 617.00 622.70 Z" fill="#e1e7e7" fill-rule="nonzero" group-id="1,8,9,19,42" node-id="159" stroke="none" target-height="30.299988" target-width="30.299988" target-x="599.7" target-y="619.7"></path></g></g><g node-id="295"><g node-id="318"><path d="M 737.40 631.20 L 737.10 635.50 L 736.30 639.70 L 734.90 643.70 L 733.00 647.50 L 730.70 651.10 L 727.80 654.30 L 724.60 657.20 L 721.00 659.50 L 717.20 661.40 L 713.20 662.80 L 709.00 663.60 L 704.70 663.90 L 700.30 663.60 L 696.10 662.80 L 692.10 661.40 L 688.30 659.50 L 684.70 657.20 L 681.50 654.30 L 678.60 651.10 L 676.30 647.50 L 674.40 643.70 L 673.00 639.70 L 672.20 635.50 L 671.90 631.20 L 672.20 626.80 L 673.00 622.60 L 674.40 618.60 L 676.30 614.80 L 678.60 611.20 L 681.50 608.00 L 684.70 605.10 L 688.30 602.80 L 692.10 600.90 L 696.10 599.50 L 700.30 598.70 L 704.70 598.40 L 709.00 598.70 L 713.20 599.50 L 717.20 600.90 L 721.00 602.80 L 724.60 605.10 L 727.80 608.00 L 730.70 611.20 L 733.00 614.80 L 734.90 618.60 L 736.30 622.60 L 737.10 626.80 L 737.40 631.20 Z" fill="#e1e7e7" fill-rule="nonzero" group-id="1,8,9,20,43" node-id="167" stroke="none" target-height="65.5" target-width="65.5" target-x="671.9" target-y="598.4"></path></g></g><g node-id="296"><g node-id="319"><path d="M 705.30 479.20 L 673.80 447.70 L 653.80 426.40 L 652.30 424.50 L 651.10 422.40 L 650.40 420.20 L 649.90 415.60 L 651.00 411.00 L 652.10 408.90 L 653.70 407.00 L 655.70 405.10 L 657.90 403.80 L 660.20 402.90 L 662.70 402.40 L 665.20 402.40 L 667.70 402.80 L 670.10 403.70 L 672.30 405.00 L 674.40 406.70 L 687.70 420.50 L 689.70 422.10 L 691.80 423.30 L 696.40 424.60 L 701.20 424.40 L 703.40 423.70 L 705.60 422.50 L 707.50 421.00 L 709.20 419.00 L 710.50 416.90 L 711.30 414.60 L 711.70 412.30 L 711.40 407.50 L 710.60 405.20 L 709.40 403.10 L 707.70 401.10 L 689.10 382.50 L 685.90 378.90 L 683.00 375.00 L 680.70 370.80 L 678.80 366.40 L 677.40 361.80 L 674.60 345.40 L 672.30 334.00 L 669.60 322.90 L 666.50 311.90 L 662.90 301.10 L 658.80 290.50 L 654.30 280.00 L 649.50 269.90 L 644.20 260.00 L 638.60 250.30 L 632.50 240.80 L 626.20 231.60 L 619.40 222.70 L 612.40 214.10 L 604.90 205.80 L 597.20 197.80 L 589.10 190.10 L 580.80 182.70 L 572.10 175.70 L 563.10 169.00 L 553.90 162.70 L 544.40 156.70 L 534.70 151.10 L 524.70 145.90 L 514.50 141.10 L 504.10 136.70 L 493.50 132.70 L 482.70 129.20 L 471.60 126.10 L 460.30 123.40 L 449.00 121.20 L 437.50 119.50 L 425.80 118.30 L 413.90 117.50 L 401.90 117.20 L 387.60 117.60 L 382.60 117.20 L 377.90 115.40 L 375.80 114.10 L 354.70 93.20 L 350.00 89.60 L 344.80 87.40 L 341.00 86.60 L 337.30 86.50 L 333.60 87.00 L 328.20 88.90 L 325.80 90.40 L 323.40 92.30 L 321.30 94.60 L 319.50 97.10 L 318.10 99.70 L 317.10 102.50 L 316.30 108.30 L 317.00 114.00 L 317.90 116.80 L 319.10 119.50 L 320.80 122.00 L 336.60 138.70 L 338.50 141.20 L 339.80 143.80 L 340.60 146.60 L 340.90 149.50 L 340.70 152.40 L 339.90 155.20 L 338.60 157.90 L 336.80 160.20 L 334.50 162.40 L 332.20 163.70 L 329.90 164.70 L 327.60 165.10 L 325.20 165.20 L 322.90 164.80 L 318.30 163.00 L 314.30 159.70 L 275.60 121.20 L 273.50 119.50 L 271.10 118.50 L 268.60 118.00 L 266.10 118.20 L 264.40 118.70 L 261.40 120.50 L 259.10 123.40 L 258.00 126.90 L 258.30 130.50 L 258.80 132.20 L 261.00 135.30 L 284.70 159.00 L 286.30 161.30 L 288.50 166.40 L 289.20 170.00 L 289.20 173.60 L 288.60 177.20 L 286.50 182.30 L 282.90 187.00 L 280.60 189.00 L 278.20 190.60 L 272.90 192.70 L 269.20 193.30 L 265.50 193.20 L 261.90 192.60 L 256.70 190.40 L 252.00 186.80 L 237.30 171.40 L 202.00 136.10 L 199.60 134.10 L 197.20 132.50 L 191.80 130.30 L 186.20 129.60 L 180.50 130.30 L 175.20 132.50 L 172.80 134.10 L 170.40 136.10 L 166.80 140.90 L 165.50 143.50 L 164.10 149.10 L 164.10 154.70 L 164.60 157.50 L 166.80 162.90 L 170.40 167.70 L 196.00 193.30 L 205.00 201.70 L 208.60 206.40 L 210.70 211.50 L 211.40 215.20 L 211.50 218.80 L 210.90 222.50 L 210.10 225.20 L 207.40 230.20 L 205.50 232.50 L 203.10 234.60 L 200.60 236.40 L 197.90 237.70 L 195.10 238.60 L 192.20 239.20 L 186.30 239.10 L 180.60 237.50 L 178.00 236.10 L 175.50 234.30 L 152.90 211.20 L 149.50 208.30 L 146.00 205.90 L 142.20 204.00 L 138.10 202.60 L 134.10 201.70 L 129.90 201.30 L 125.70 201.40 L 121.70 202.10 L 117.60 203.30 L 113.80 205.00 L 110.10 207.30 L 106.70 210.10 L 103.60 213.50 L 101.10 217.10 L 99.10 221.00 L 97.70 225.10 L 96.80 229.20 L 96.50 233.50 L 96.70 237.70 L 97.40 241.90 L 98.80 246.00 L 100.60 249.90 L 103.00 253.60 L 106.10 257.10 L 161.20 312.00 L 163.20 314.40 L 164.70 317.00 L 165.60 319.70 L 166.10 322.60 L 166.00 325.50 L 165.40 328.30 L 164.40 331.10 L 162.80 333.60 L 160.70 335.90 L 158.40 337.70 L 155.90 339.00 L 153.20 339.80 L 150.50 340.20 L 147.70 340.20 L 145.00 339.60 L 142.40 338.60 L 140.00 337.20 L 137.70 335.30 L 124.30 321.60 L 122.80 320.40 L 119.70 319.00 L 117.90 318.70 L 114.50 319.00 L 111.30 320.40 L 109.90 321.60 L 108.40 323.20 L 107.40 324.70 L 106.80 326.40 L 106.70 329.90 L 107.20 331.60 L 108.30 334.00 L 110.00 336.10 L 127.80 353.90 L 164.70 389.90 L 166.70 392.20 L 168.10 394.60 L 169.00 397.20 L 169.50 399.90 L 169.50 402.60 L 169.00 405.40 L 168.10 408.00 L 166.70 410.40 L 164.80 412.70 L 162.60 414.50 L 160.20 415.90 L 157.70 416.80 L 155.00 417.20 L 152.30 417.20 L 149.70 416.80 L 147.10 415.90 L 144.70 414.60 L 142.50 412.80 L 98.90 369.50 L 96.90 367.90 L 94.80 366.70 L 92.50 365.80 L 90.20 365.40 L 85.40 365.60 L 83.20 366.30 L 81.00 367.50 L 79.10 369.00 L 77.40 371.00 L 76.10 373.10 L 75.30 375.40 L 74.90 377.70 L 74.80 380.10 L 75.20 382.50 L 76.00 384.80 L 77.20 386.90 L 78.90 388.90 L 122.80 432.80 L 125.20 435.60 L 127.20 438.80 L 128.60 442.20 L 132.20 458.30 L 135.40 470.50 L 139.10 482.40 L 143.30 494.10 L 148.00 505.50 L 153.30 516.80 L 159.00 527.70 L 165.10 538.30 L 171.70 548.60 L 178.80 558.60 L 186.30 568.30 L 194.10 577.70 L 202.40 586.60 L 211.10 595.20 L 220.10 603.40 L 229.50 611.30 L 239.20 618.70 L 249.30 625.60 L 259.60 632.10 L 270.40 638.30 L 281.30 643.90 L 292.50 649.00 L 304.00 653.60 L 315.80 657.70 L 327.90 661.40 L 340.00 664.50 L 352.40 667.00 L 365.00 669.00 L 377.80 670.30 L 394.50 671.50 L 397.90 672.30 L 401.30 673.50 L 404.50 675.10 L 407.40 677.00 L 410.20 679.30 L 430.40 698.70 L 435.10 702.30 L 440.40 704.50 L 444.10 705.30 L 447.90 705.40 L 451.60 704.90 L 456.90 703.00 L 459.40 701.50 L 461.80 699.60 L 463.90 697.30 L 465.70 694.80 L 467.00 692.20 L 468.00 689.40 L 468.90 683.60 L 468.20 677.90 L 466.10 672.40 L 464.40 669.90 L 462.40 667.50 L 450.30 655.00 L 448.60 652.80 L 447.50 650.50 L 446.70 648.10 L 446.40 645.50 L 446.60 643.00 L 447.20 640.60 L 448.20 638.20 L 449.60 636.10 L 451.50 634.10 L 453.60 632.60 L 455.80 631.50 L 460.60 630.60 L 465.40 631.30 L 467.60 632.20 L 469.70 633.50 L 491.90 656.40 L 513.90 678.50 L 516.20 680.50 L 518.80 682.20 L 524.20 684.30 L 527.10 684.80 L 532.90 684.70 L 538.60 683.10 L 541.20 681.80 L 543.70 680.00 L 546.00 677.90 L 547.90 675.50 L 549.40 673.00 L 551.30 667.70 L 551.80 664.00 L 551.70 660.30 L 550.90 656.50 L 549.90 653.80 L 547.00 648.90 L 528.60 630.00 L 526.60 627.50 L 524.90 624.90 L 523.60 622.10 L 522.20 616.30 L 522.30 610.30 L 523.00 607.40 L 525.40 601.80 L 527.20 599.30 L 529.30 596.90 L 532.20 594.50 L 534.70 592.90 L 540.20 590.80 L 544.00 590.20 L 547.80 590.20 L 551.60 590.90 L 557.00 593.00 L 559.50 594.70 L 561.90 596.70 L 581.60 616.00 L 583.70 617.60 L 586.10 618.60 L 588.60 619.10 L 591.10 618.90 L 594.30 617.70 L 597.10 615.20 L 598.10 613.70 L 599.20 610.20 L 598.90 606.60 L 597.50 603.30 L 591.10 596.70 L 588.50 594.70 L 582.60 589.00 L 566.30 572.50 L 558.50 564.40 L 556.00 560.70 L 555.00 556.60 L 555.50 552.40 L 556.30 550.40 L 558.90 546.90 L 562.50 544.50 L 564.60 543.80 L 568.70 543.60 L 572.80 544.70 L 574.60 545.80 L 576.30 547.30 L 607.40 580.20 L 621.50 594.30 L 624.90 597.20 L 628.40 599.60 L 632.20 601.50 L 636.20 602.90 L 640.30 603.80 L 644.40 604.20 L 648.60 604.10 L 652.70 603.40 L 656.80 602.20 L 660.60 600.50 L 664.20 598.30 L 667.70 595.40 L 670.80 592.00 L 673.30 588.40 L 675.30 584.60 L 676.70 580.50 L 677.60 576.30 L 677.90 572.10 L 677.70 567.80 L 676.90 563.60 L 675.60 559.50 L 673.70 555.60 L 671.30 551.90 L 668.30 548.50 L 645.80 525.90 L 634.40 513.50 L 632.70 511.30 L 631.50 509.00 L 630.70 506.60 L 630.40 504.10 L 630.40 501.50 L 630.90 499.00 L 631.80 496.60 L 633.10 494.40 L 634.90 492.40 L 637.10 490.60 L 639.50 489.30 L 642.00 488.50 L 644.60 488.10 L 647.20 488.20 L 649.80 488.70 L 652.20 489.70 L 654.50 491.10 L 674.10 511.10 L 676.50 513.10 L 679.00 514.80 L 681.70 516.00 L 687.40 517.40 L 693.20 517.40 L 696.00 516.70 L 701.50 514.40 L 703.90 512.60 L 706.20 510.50 L 709.60 505.70 L 711.60 500.30 L 712.10 496.60 L 711.90 492.90 L 711.20 489.10 L 708.90 483.90 L 705.30 479.20 Z" fill="#e1e7e7" fill-rule="nonzero" group-id="1,8,9,21,44" node-id="175" stroke="none" target-height="618.9" target-width="637.3" target-x="74.8" target-y="86.5"></path></g></g><g node-id="297"><g node-id="320"><path d="M 432.80 198.20 L 418.00 198.20 L 417.70 181.90 L 417.20 180.60 L 415.20 178.60 L 412.50 177.90 L 409.70 178.60 L 407.70 180.60 L 407.20 181.90 L 406.90 198.20 L 392.10 198.20 L 389.30 199.00 L 387.30 201.00 L 386.60 203.70 L 386.80 205.20 L 387.30 206.50 L 389.30 208.50 L 392.10 209.20 L 406.90 209.20 L 407.20 225.60 L 408.60 228.00 L 411.00 229.40 L 412.50 229.60 L 415.20 228.80 L 417.20 226.90 L 417.70 225.60 L 418.00 209.20 L 432.80 209.20 L 435.60 208.50 L 437.60 206.50 L 438.30 203.70 L 437.60 201.00 L 435.60 199.00 L 432.80 198.20 Z" fill="#ffffff" fill-rule="nonzero" group-id="1,8,9,22,45" node-id="183" stroke="none" target-height="51.700012" target-width="51.69998" target-x="386.6" target-y="177.9"></path></g></g><g node-id="298"><g node-id="321"><path d="M 588.60 416.80 L 586.10 416.50 L 583.90 415.90 L 579.90 413.60 L 577.00 410.10 L 576.00 408.10 L 575.40 405.80 L 575.20 403.40 L 575.40 400.90 L 576.00 398.70 L 578.30 394.80 L 581.80 391.80 L 583.90 390.80 L 586.10 390.20 L 588.60 390.00 L 591.00 390.20 L 593.20 390.80 L 597.20 393.20 L 600.10 396.60 L 601.10 398.70 L 601.70 400.90 L 601.90 403.40 L 601.70 405.80 L 601.10 408.10 L 598.80 412.00 L 595.30 414.90 L 593.20 415.90 L 591.00 416.50 L 588.60 416.80 Z M 588.60 396.40 L 586.70 396.70 L 585.00 397.40 L 583.60 398.50 L 582.60 399.90 L 581.90 401.50 L 581.60 403.40 L 581.90 405.20 L 582.60 406.90 L 583.60 408.30 L 585.00 409.40 L 586.70 410.10 L 588.60 410.30 L 590.40 410.10 L 592.10 409.40 L 593.50 408.30 L 594.50 406.90 L 595.20 405.20 L 595.50 403.40 L 595.30 401.50 L 594.60 399.90 L 593.50 398.50 L 592.10 397.40 L 590.40 396.70 L 588.60 396.40 Z" fill="#ffffff" fill-rule="nonzero" group-id="1,8,9,23,46" node-id="191" stroke="none" target-height="26.799988" target-width="26.700012" target-x="575.2" target-y="390"></path></g></g><path d="M 225.90 518.80 L 223.50 518.60 L 221.20 518.00 L 219.20 517.00 L 215.70 514.00 L 213.40 510.10 L 212.70 507.80 L 212.50 505.40 L 212.70 503.00 L 213.40 500.70 L 215.70 496.80 L 219.20 493.90 L 221.20 492.90 L 223.50 492.30 L 225.90 492.00 L 228.30 492.30 L 230.60 492.90 L 234.50 495.20 L 237.50 498.70 L 238.40 500.70 L 239.10 503.00 L 239.30 505.40 L 239.10 507.80 L 238.40 510.10 L 236.10 514.00 L 232.60 517.00 L 230.60 518.00 L 228.30 518.60 L 225.90 518.80 Z M 225.90 498.50 L 224.00 498.70 L 222.40 499.40 L 221.00 500.50 L 219.90 501.90 L 219.20 503.60 L 219.00 505.40 L 219.20 507.30 L 219.90 508.90 L 221.00 510.30 L 222.40 511.40 L 224.00 512.10 L 225.90 512.40 L 227.80 512.10 L 229.40 511.40 L 230.80 510.30 L 231.90 508.90 L 232.60 507.30 L 232.90 505.40 L 232.60 503.60 L 231.90 501.90 L 230.80 500.50 L 229.40 499.40 L 227.80 498.70 L 225.90 498.50 Z" fill="#ffffff" fill-rule="nonzero" group-id="1,8,9,24,47" node-id="199" stroke="none" target-height="26.799988" target-width="26.800003" target-x="212.5" target-y="492"></path></g><g node-id="285"><g node-id="300"><g node-id="323"><path d="M 521.00 199.70 L 311.80 199.70 L 308.10 199.90 L 304.60 200.60 L 301.30 201.80 L 298.20 203.30 L 295.30 205.20 L 292.70 207.50 L 290.40 210.00 L 288.40 212.80 L 286.80 215.90 L 285.60 219.20 L 284.80 222.70 L 284.50 226.30 L 258.20 226.30 L 254.40 226.60 L 250.90 227.30 L 247.60 228.50 L 244.40 230.10 L 241.50 232.00 L 238.90 234.40 L 236.50 237.00 L 234.60 239.90 L 233.00 243.00 L 231.80 246.40 L 231.10 249.90 L 230.90 253.70 L 230.90 556.20 L 231.10 560.00 L 231.80 563.50 L 233.00 566.90 L 234.60 570.10 L 236.50 573.00 L 238.90 575.60 L 241.50 577.90 L 244.40 579.80 L 247.60 581.40 L 250.90 582.60 L 254.40 583.30 L 258.20 583.60 L 467.40 583.60 L 471.10 583.30 L 474.60 582.60 L 478.00 581.40 L 481.20 579.80 L 484.10 577.90 L 486.70 575.60 L 489.00 572.90 L 491.00 570.10 L 492.60 566.90 L 493.70 563.50 L 494.40 560.00 L 494.70 550.70 L 521.00 550.70 L 524.70 550.40 L 528.30 549.70 L 531.60 548.50 L 534.80 546.90 L 537.70 545.00 L 540.30 542.70 L 542.60 540.00 L 544.60 537.10 L 546.20 534.00 L 547.30 530.60 L 548.00 527.10 L 548.30 523.30 L 548.30 227.00 L 548.00 223.30 L 547.30 219.70 L 546.20 216.40 L 544.60 213.20 L 542.60 210.30 L 540.30 207.70 L 537.70 205.40 L 534.80 203.40 L 531.60 201.80 L 528.20 200.70 L 524.70 200.00 L 521.00 199.70 Z" fill="#ffffff" fill-rule="nonzero" group-id="1,8,10,25,48" node-id="210" stroke="none" target-height="383.89996" target-width="317.4" target-x="230.9" target-y="199.7"></path></g></g><g node-id="301"><g node-id="324"><path d="M 518.00 553.70 L 314.80 553.70 L 310.20 553.40 L 305.90 552.50 L 301.80 551.10 L 297.90 549.10 L 294.40 546.70 L 291.20 543.90 L 288.40 540.70 L 286.00 537.20 L 284.10 533.30 L 282.60 529.20 L 281.80 524.90 L 281.40 520.30 L 281.40 230.00 L 281.80 225.50 L 282.60 221.20 L 284.10 217.10 L 286.00 213.20 L 288.40 209.70 L 291.20 206.50 L 294.40 203.60 L 297.90 201.30 L 301.80 199.30 L 305.90 197.90 L 310.20 197.00 L 314.80 196.70 L 518.00 196.70 L 522.50 197.00 L 526.80 197.90 L 530.90 199.30 L 534.80 201.30 L 538.30 203.60 L 541.50 206.50 L 544.30 209.70 L 546.70 213.20 L 548.70 217.10 L 550.10 221.20 L 551.00 225.50 L 551.30 230.00 L 551.30 520.30 L 551.00 524.90 L 550.10 529.20 L 548.70 533.30 L 546.70 537.20 L 544.30 540.70 L 541.50 543.90 L 538.30 546.70 L 534.80 549.10 L 530.90 551.10 L 526.80 552.50 L 522.50 553.40 L 518.00 553.70 Z M 314.80 202.70 L 311.00 203.00 L 307.50 203.70 L 304.20 204.80 L 301.00 206.40 L 298.10 208.40 L 295.50 210.70 L 293.10 213.30 L 291.20 216.20 L 289.60 219.40 L 288.40 222.70 L 287.70 226.30 L 287.40 230.00 L 287.40 520.30 L 287.70 524.10 L 288.40 527.60 L 289.60 531.00 L 291.20 534.10 L 293.10 537.00 L 295.50 539.70 L 298.10 542.00 L 301.00 543.90 L 304.10 545.50 L 307.50 546.70 L 311.00 547.40 L 314.80 547.70 L 518.00 547.70 L 521.70 547.40 L 525.20 546.70 L 528.60 545.50 L 531.80 543.90 L 534.70 542.00 L 537.30 539.70 L 539.60 537.00 L 541.50 534.10 L 543.10 531.00 L 544.30 527.60 L 545.00 524.10 L 545.30 520.30 L 545.30 230.00 L 545.00 226.30 L 544.30 222.80 L 543.10 219.40 L 541.60 216.20 L 539.60 213.30 L 537.30 210.70 L 534.70 208.40 L 531.80 206.40 L 528.60 204.80 L 525.20 203.70 L 521.70 203.00 L 518.00 202.70 L 314.80 202.70 Z" fill="#1d1f23" fill-rule="nonzero" group-id="1,8,10,26,49" node-id="218" stroke="none" target-height="357" target-width="269.9" target-x="281.4" target-y="196.7"></path></g></g><g node-id="302"><g node-id="325"><path d="M 467.30 586.60 L 258.20 586.60 L 254.00 586.30 L 250.10 585.50 L 246.40 584.20 L 242.90 582.40 L 239.70 580.30 L 236.70 577.70 L 234.20 574.80 L 232.00 571.60 L 230.20 568.00 L 228.90 564.30 L 228.10 560.40 L 227.80 556.20 L 227.80 253.70 L 228.10 249.50 L 228.90 245.60 L 230.20 241.90 L 232.00 238.40 L 234.20 235.20 L 236.70 232.20 L 239.70 229.70 L 242.90 227.50 L 246.40 225.70 L 250.10 224.40 L 254.00 223.60 L 258.20 223.30 L 287.60 223.30 L 287.50 523.30 L 287.70 526.70 L 288.30 529.80 L 289.40 532.80 L 290.80 535.60 L 294.60 540.50 L 299.50 544.30 L 302.30 545.80 L 305.30 546.80 L 308.50 547.40 L 311.80 547.70 L 497.70 547.70 L 497.70 556.20 L 497.40 560.40 L 496.60 564.30 L 495.30 568.00 L 493.50 571.60 L 491.40 574.80 L 488.80 577.70 L 485.90 580.30 L 482.70 582.40 L 479.10 584.20 L 475.40 585.50 L 471.50 586.30 L 467.30 586.60 Z M 258.20 229.30 L 254.80 229.60 L 251.70 230.20 L 248.70 231.30 L 245.90 232.70 L 241.00 236.50 L 237.20 241.40 L 235.80 244.20 L 234.70 247.20 L 234.10 250.30 L 233.80 253.70 L 233.80 556.20 L 234.10 559.60 L 234.70 562.70 L 235.80 565.70 L 237.20 568.50 L 238.90 571.10 L 243.30 575.50 L 248.70 578.70 L 251.70 579.70 L 254.80 580.40 L 258.20 580.60 L 467.30 580.60 L 470.70 580.40 L 473.80 579.70 L 476.80 578.70 L 479.60 577.30 L 482.20 575.50 L 486.60 571.10 L 488.40 568.50 L 489.80 565.70 L 490.80 562.70 L 491.50 559.60 L 491.70 556.20 L 491.70 553.70 L 311.80 553.70 L 307.60 553.40 L 303.70 552.60 L 300.00 551.30 L 296.50 549.50 L 293.30 547.40 L 290.30 544.80 L 287.80 541.90 L 285.60 538.70 L 283.80 535.10 L 282.50 531.40 L 281.70 527.50 L 281.50 523.30 L 281.50 229.30 L 258.20 229.30 Z" fill="#1d1f23" fill-rule="nonzero" group-id="1,8,10,27,50" node-id="226" stroke="none" target-height="363.3" target-width="269.90002" target-x="227.8" target-y="223.3"></path></g></g><g node-id="303"><g node-id="326"><path d="M 514.40 262.90 L 319.40 262.90 L 317.40 262.60 L 315.60 261.80 L 314.10 260.70 L 312.90 259.10 L 312.20 257.40 L 311.90 255.40 L 311.90 250.10 L 312.20 248.00 L 312.90 246.30 L 314.10 244.70 L 315.60 243.60 L 317.40 242.80 L 319.40 242.50 L 514.40 242.50 L 516.40 242.80 L 518.20 243.60 L 519.70 244.70 L 520.90 246.30 L 521.70 248.00 L 521.90 250.10 L 521.90 255.40 L 521.70 257.40 L 520.90 259.10 L 519.70 260.70 L 518.20 261.90 L 516.40 262.60 L 514.40 262.90 Z M 319.40 248.50 L 318.40 249.00 L 317.90 250.10 L 318.00 255.90 L 318.80 256.80 L 319.40 256.90 L 514.40 256.90 L 515.50 256.40 L 515.90 255.40 L 515.80 249.50 L 515.00 248.70 L 514.40 248.50 L 319.40 248.50 Z" fill="#1d1f23" fill-rule="nonzero" group-id="1,8,10,28,51" node-id="234" stroke="none" target-height="20.399994" target-width="210.00003" target-x="311.9" target-y="242.5"></path></g></g><g node-id="304"><g node-id="327"><path d="M 514.40 315.10 L 319.40 315.10 L 317.40 314.90 L 315.60 314.10 L 314.10 312.90 L 312.90 311.40 L 312.20 309.60 L 311.90 307.60 L 311.90 302.30 L 312.20 300.30 L 312.90 298.50 L 314.10 297.00 L 315.60 295.80 L 317.40 295.10 L 319.40 294.80 L 514.40 294.80 L 516.40 295.10 L 518.20 295.80 L 519.70 297.00 L 520.90 298.50 L 521.70 300.30 L 521.90 302.30 L 521.90 307.60 L 521.70 309.60 L 520.90 311.40 L 519.70 312.90 L 518.20 314.10 L 516.40 314.90 L 514.40 315.10 Z M 319.40 300.80 L 318.40 301.20 L 317.90 302.30 L 318.00 308.20 L 318.80 309.00 L 319.40 309.10 L 514.40 309.10 L 515.50 308.70 L 515.90 307.60 L 515.80 301.70 L 515.00 300.90 L 514.40 300.80 L 319.40 300.80 Z" fill="#1d1f23" fill-rule="nonzero" group-id="1,8,10,29,52" node-id="242" stroke="none" target-height="20.300018" target-width="210.00003" target-x="311.9" target-y="294.8"></path></g></g><g node-id="305"><g node-id="328"><path d="M 514.40 368.10 L 319.40 368.10 L 317.40 367.80 L 315.60 367.10 L 314.10 365.90 L 312.90 364.40 L 312.20 362.60 L 311.90 360.60 L 311.90 355.30 L 312.20 353.30 L 312.90 351.50 L 314.10 349.90 L 315.60 348.80 L 317.40 348.00 L 319.40 347.70 L 514.40 347.70 L 516.40 348.00 L 518.20 348.80 L 519.70 349.90 L 520.90 351.50 L 521.70 353.30 L 521.90 355.30 L 521.90 360.60 L 521.70 362.60 L 520.90 364.40 L 519.70 365.90 L 518.20 367.10 L 516.40 367.80 L 514.40 368.10 Z M 319.40 353.70 L 318.40 354.20 L 317.90 355.30 L 318.00 361.20 L 318.80 362.00 L 319.40 362.10 L 514.40 362.10 L 515.50 361.60 L 515.90 360.60 L 515.80 354.70 L 515.00 353.90 L 514.40 353.70 L 319.40 353.70 Z" fill="#1d1f23" fill-rule="nonzero" group-id="1,8,10,30,53" node-id="250" stroke="none" target-height="20.399994" target-width="210.00003" target-x="311.9" target-y="347.7"></path></g></g><g node-id="306"><g node-id="329"><path d="M 396.70 424.30 L 319.40 424.30 L 317.40 424.00 L 315.60 423.30 L 314.10 422.10 L 312.90 420.60 L 312.20 418.80 L 311.90 416.80 L 311.90 411.50 L 312.20 409.50 L 312.90 407.70 L 314.10 406.20 L 315.60 405.00 L 317.40 404.20 L 319.40 404.00 L 396.70 404.00 L 398.70 404.20 L 400.50 405.00 L 402.00 406.20 L 403.20 407.70 L 404.00 409.50 L 404.20 411.50 L 404.20 416.80 L 404.00 418.80 L 403.20 420.60 L 402.00 422.10 L 400.50 423.30 L 398.70 424.00 L 396.70 424.30 Z M 319.40 410.00 L 318.40 410.40 L 317.90 411.50 L 318.00 417.40 L 318.80 418.20 L 319.40 418.30 L 396.70 418.30 L 397.80 417.90 L 398.20 416.80 L 398.10 410.90 L 397.30 410.10 L 396.70 410.00 L 319.40 410.00 Z" fill="#1d1f23" fill-rule="nonzero" group-id="1,8,10,31,54" node-id="258" stroke="none" target-height="20.299988" target-width="92.30002" target-x="311.9" target-y="404"></path></g></g><g node-id="307"><g node-id="330"><path d="M 607.90 546.20 L 547.20 498.10 L 549.30 491.10 L 550.80 484.00 L 551.70 476.50 L 552.00 468.80 L 551.70 461.30 L 550.80 454.10 L 549.40 447.00 L 547.40 440.20 L 544.90 433.50 L 541.90 427.20 L 538.40 421.10 L 534.50 415.30 L 530.20 409.80 L 525.40 404.70 L 520.40 400.00 L 514.90 395.70 L 509.10 391.70 L 503.00 388.30 L 496.60 385.30 L 490.00 382.80 L 483.10 380.80 L 476.10 379.30 L 468.90 378.40 L 461.30 378.10 L 453.80 378.40 L 446.50 379.30 L 439.50 380.80 L 432.70 382.80 L 426.00 385.30 L 419.60 388.30 L 413.60 391.70 L 407.80 395.70 L 402.30 400.00 L 397.20 404.70 L 392.50 409.80 L 388.10 415.30 L 384.20 421.10 L 380.80 427.20 L 377.80 433.50 L 375.30 440.20 L 373.30 447.00 L 371.80 454.10 L 370.90 461.30 L 370.60 468.80 L 370.90 476.40 L 371.80 483.60 L 373.30 490.70 L 375.30 497.50 L 377.80 504.20 L 380.80 510.50 L 384.20 516.60 L 388.10 522.40 L 392.50 527.90 L 397.20 533.00 L 402.30 537.70 L 407.80 542.00 L 413.60 545.90 L 419.60 549.40 L 426.00 552.40 L 432.70 554.90 L 439.50 556.90 L 446.50 558.30 L 453.80 559.20 L 461.30 559.60 L 467.70 559.30 L 473.80 558.70 L 479.80 557.70 L 485.70 556.20 L 491.40 554.40 L 498.30 551.60 L 504.90 548.30 L 511.20 544.50 L 517.20 540.20 L 575.80 586.70 L 578.80 588.70 L 581.80 590.20 L 585.00 591.30 L 588.30 592.00 L 591.50 592.20 L 594.80 592.10 L 598.10 591.50 L 601.20 590.50 L 604.30 589.00 L 607.10 587.20 L 609.70 585.10 L 612.10 582.40 L 614.10 579.50 L 615.70 576.40 L 616.80 573.30 L 617.40 570.00 L 617.70 566.70 L 617.50 563.40 L 616.90 560.20 L 615.90 557.00 L 614.50 554.00 L 612.70 551.10 L 610.50 548.50 L 607.90 546.20 Z M 396.00 468.80 L 396.20 463.40 L 396.80 458.20 L 397.90 453.10 L 399.30 448.20 L 401.10 443.40 L 405.80 434.40 L 408.60 430.30 L 415.10 422.60 L 422.80 416.10 L 426.90 413.30 L 435.90 408.60 L 440.70 406.80 L 445.60 405.40 L 450.70 404.30 L 455.90 403.70 L 461.30 403.50 L 466.70 403.70 L 472.00 404.30 L 477.00 405.40 L 482.00 406.80 L 491.40 410.80 L 495.70 413.30 L 503.90 419.20 L 510.90 426.30 L 514.10 430.30 L 519.40 438.80 L 523.40 448.20 L 524.80 453.10 L 525.80 458.20 L 526.50 463.40 L 526.70 468.80 L 526.50 474.30 L 525.80 479.50 L 524.80 484.60 L 523.40 489.50 L 519.40 498.90 L 516.90 503.20 L 510.90 511.40 L 503.90 518.40 L 499.90 521.60 L 491.40 526.90 L 486.80 529.00 L 482.00 530.90 L 477.00 532.30 L 472.00 533.30 L 466.70 534.00 L 461.30 534.20 L 455.90 534.00 L 450.70 533.30 L 445.60 532.30 L 440.70 530.90 L 435.90 529.00 L 426.90 524.40 L 422.80 521.60 L 415.10 515.00 L 408.60 507.40 L 405.80 503.20 L 401.10 494.30 L 399.30 489.50 L 397.90 484.60 L 396.80 479.50 L 396.20 474.30 L 396.00 468.80 Z" fill="#ffffff" fill-rule="nonzero" group-id="1,8,10,32,55" node-id="266" stroke="none" target-height="214.1" target-width="247.1" target-x="370.6" target-y="378.1"></path></g></g><path d="M 591.80 595.20 L 585.60 594.50 L 582.50 593.70 L 576.70 590.90 L 517.20 544.00 L 510.90 548.30 L 504.40 552.10 L 497.70 555.20 L 490.80 557.80 L 483.60 559.90 L 476.40 561.40 L 469.00 562.20 L 461.30 562.60 L 453.60 562.20 L 446.10 561.30 L 438.80 559.80 L 431.70 557.80 L 424.80 555.10 L 418.30 552.10 L 412.00 548.50 L 406.00 544.40 L 400.40 539.90 L 395.10 535.10 L 390.20 529.80 L 385.70 524.10 L 381.70 518.20 L 378.10 511.90 L 375.00 505.30 L 372.40 498.40 L 370.30 491.40 L 368.90 484.10 L 368.00 476.60 L 367.60 468.80 L 368.00 461.10 L 368.90 453.60 L 370.40 446.30 L 372.40 439.30 L 375.00 432.40 L 378.10 425.80 L 381.70 419.50 L 385.70 413.50 L 390.20 407.90 L 395.10 402.60 L 400.40 397.70 L 406.00 393.20 L 412.00 389.20 L 418.30 385.60 L 424.80 382.50 L 431.70 379.90 L 438.80 377.90 L 446.10 376.40 L 453.60 375.50 L 461.30 375.10 L 469.10 375.50 L 476.60 376.40 L 483.90 377.90 L 490.90 379.90 L 497.80 382.50 L 504.40 385.60 L 510.70 389.20 L 516.60 393.20 L 522.30 397.70 L 527.60 402.60 L 532.40 407.90 L 536.90 413.50 L 541.00 419.50 L 544.50 425.80 L 547.60 432.40 L 550.30 439.30 L 552.30 446.30 L 553.80 453.60 L 554.70 461.10 L 555.00 468.80 L 554.80 476.00 L 553.90 483.10 L 552.60 490.10 L 550.70 497.00 L 609.70 543.80 L 612.60 546.40 L 615.00 549.20 L 617.00 552.30 L 618.60 555.70 L 619.80 559.30 L 620.50 563.10 L 620.70 566.90 L 620.40 570.60 L 619.60 574.30 L 618.30 577.80 L 616.60 581.10 L 614.50 584.30 L 609.70 589.10 L 604.20 592.40 L 600.20 594.00 L 596.10 594.90 L 591.80 595.20 Z M 517.20 536.40 L 577.70 584.30 L 580.30 586.10 L 585.80 588.40 L 591.60 589.20 L 597.30 588.50 L 602.80 586.40 L 605.30 584.80 L 609.80 580.60 L 611.50 578.10 L 612.80 575.40 L 614.40 569.70 L 614.50 563.80 L 614.00 560.80 L 611.80 555.30 L 608.30 550.50 L 543.60 499.10 L 546.40 490.20 L 547.90 483.20 L 548.70 476.00 L 549.00 468.80 L 548.70 461.50 L 547.90 454.50 L 546.50 447.70 L 544.60 441.10 L 542.10 434.70 L 539.20 428.50 L 535.90 422.70 L 532.10 417.10 L 527.90 411.80 L 523.30 406.80 L 518.40 402.30 L 513.10 398.10 L 507.50 394.30 L 501.60 390.90 L 495.50 388.00 L 489.00 385.60 L 482.40 383.70 L 475.60 382.30 L 468.60 381.40 L 461.30 381.10 L 454.10 381.40 L 447.00 382.30 L 440.20 383.70 L 433.60 385.60 L 427.20 388.00 L 421.00 390.90 L 415.20 394.30 L 409.60 398.10 L 404.30 402.30 L 399.30 406.80 L 394.80 411.80 L 390.60 417.10 L 386.80 422.70 L 383.40 428.50 L 380.50 434.70 L 378.10 441.10 L 376.20 447.70 L 374.80 454.50 L 373.90 461.50 L 373.60 468.80 L 373.90 476.10 L 374.80 483.10 L 376.20 489.90 L 378.10 496.50 L 380.50 503.00 L 383.40 509.10 L 386.80 515.00 L 390.60 520.60 L 394.80 525.90 L 399.30 530.80 L 404.30 535.40 L 409.60 539.60 L 415.20 543.40 L 421.00 546.70 L 427.20 549.60 L 433.60 552.10 L 440.20 554.00 L 447.00 555.40 L 454.10 556.20 L 461.30 556.50 L 468.70 556.20 L 475.90 555.30 L 483.00 553.80 L 489.90 551.80 L 496.60 549.10 L 503.10 546.00 L 509.30 542.20 L 517.20 536.40 Z M 461.30 537.20 L 455.70 537.00 L 450.20 536.30 L 444.90 535.20 L 439.70 533.70 L 434.70 531.80 L 429.90 529.50 L 425.30 526.90 L 421.00 524.00 L 413.00 517.20 L 409.50 513.30 L 406.20 509.20 L 403.20 504.80 L 400.60 500.20 L 398.40 495.50 L 396.50 490.40 L 395.00 485.30 L 393.90 480.00 L 393.20 474.50 L 393.00 468.80 L 393.20 463.20 L 393.90 457.70 L 395.00 452.40 L 396.50 447.30 L 398.40 442.20 L 400.60 437.40 L 403.20 432.90 L 406.20 428.50 L 413.00 420.50 L 416.90 417.00 L 421.00 413.70 L 425.30 410.70 L 429.90 408.10 L 434.70 405.90 L 439.70 404.00 L 444.90 402.50 L 450.20 401.40 L 455.70 400.70 L 461.30 400.50 L 467.00 400.70 L 472.50 401.40 L 477.80 402.50 L 482.90 404.00 L 487.90 405.90 L 492.70 408.10 L 497.30 410.70 L 501.70 413.70 L 509.60 420.50 L 516.50 428.50 L 519.40 432.90 L 522.00 437.40 L 524.30 442.20 L 526.20 447.30 L 527.70 452.40 L 528.80 457.70 L 529.40 463.20 L 529.70 468.80 L 529.40 474.50 L 528.80 480.00 L 527.70 485.30 L 526.20 490.40 L 524.30 495.50 L 522.00 500.20 L 519.40 504.80 L 516.50 509.20 L 513.20 513.30 L 509.60 517.20 L 501.70 524.00 L 497.30 526.90 L 492.70 529.50 L 487.90 531.80 L 482.90 533.70 L 477.80 535.20 L 472.50 536.30 L 467.00 537.00 L 461.30 537.20 Z M 461.30 406.50 L 451.20 407.30 L 446.30 408.30 L 437.00 411.40 L 428.50 415.80 L 424.50 418.50 L 417.30 424.80 L 411.00 432.00 L 408.30 436.00 L 403.90 444.60 L 400.80 453.80 L 399.80 458.70 L 399.20 463.70 L 399.00 468.80 L 399.20 474.00 L 399.80 479.00 L 400.80 483.80 L 402.20 488.50 L 406.00 497.50 L 408.30 501.70 L 414.00 509.40 L 420.80 516.20 L 424.50 519.20 L 432.70 524.20 L 441.60 528.00 L 446.30 529.40 L 451.20 530.40 L 456.20 531.00 L 461.30 531.20 L 466.50 531.00 L 471.50 530.40 L 476.30 529.40 L 481.00 528.00 L 490.00 524.20 L 494.20 521.80 L 501.90 516.20 L 508.60 509.40 L 511.60 505.60 L 516.70 497.50 L 518.80 493.10 L 521.90 483.80 L 522.90 479.00 L 523.50 474.00 L 523.70 468.80 L 523.50 463.70 L 522.90 458.70 L 521.90 453.80 L 518.80 444.60 L 514.30 436.00 L 511.60 432.00 L 505.40 424.80 L 498.10 418.50 L 494.20 415.80 L 485.60 411.40 L 476.30 408.30 L 471.50 407.30 L 466.50 406.70 L 461.30 406.50 Z" fill="#1d1f23" fill-rule="nonzero" group-id="1,8,10,33,56" node-id="274" stroke="none" target-height="220.1" target-width="253.1" target-x="367.6" target-y="375.1"></path></g></g></g></svg>