<svg width="500" height="500" viewBox="0 0 500 500" fill="none" xmlns="http://www.w3.org/2000/svg">
<g clip-path="url(#clip0_20_51)">
<path d="M375 0H125C55.9644 0 0 55.9644 0 125V375C0 444.036 55.9644 500 125 500H375C444.036 500 500 444.036 500 375V125C500 55.9644 444.036 0 375 0Z" fill="white"/>
<path d="M294.437 258C294.437 258 263.206 281.5 256.733 287C250.26 292.5 250.921 298.5 255.733 304C260.546 309.5 341.937 397 341.937 397H411.937C417.937 397 420.437 392.435 415.937 387.5C369.437 336.5 294.437 258 294.437 258Z" fill="black" stroke="black"/>
<path d="M115 216V103H163.5C174 103 176 108.5 176 117V169L115 216Z" fill="black" stroke="black"/>
<path d="M115 266.5V397.5H161.5C170 397.5 176 392.5 176 382.5V310.5C176 296.5 199 280.5 209 272C219 263.5 399 127 411 118C423 109 419 103 405.5 103H331L115 266.5Z" fill="black" stroke="black"/>
</g>
<defs>
<clipPath id="clip0_20_51">
<rect width="500" height="500" fill="white"/>
</clipPath>
</defs>
</svg>
